<?xml version="1.0" encoding="UTF-8" standalone="no"?>
<!-- Created with Inkscape (http://www.inkscape.org/) -->

<svg
   xmlns:dc="http://purl.org/dc/elements/1.1/"
   xmlns:cc="http://creativecommons.org/ns#"
   xmlns:rdf="http://www.w3.org/1999/02/22-rdf-syntax-ns#"
   xmlns:svg="http://www.w3.org/2000/svg"
   xmlns="http://www.w3.org/2000/svg"
   xmlns:sodipodi="http://sodipodi.sourceforge.net/DTD/sodipodi-0.dtd"
   xmlns:inkscape="http://www.inkscape.org/namespaces/inkscape"
   width="121.07256mm"
   height="147.9778mm"
   viewBox="0 0 428.99727 524.33078"
   id="svg2"
   version="1.1"
   inkscape:version="0.91 r"
   sodipodi:docname="chemical.svg">
  <defs
     id="defs4" />
  <sodipodi:namedview
     id="base"
     pagecolor="#ffffff"
     bordercolor="#666666"
     borderopacity="1.0"
     inkscape:pageopacity="0.0"
     inkscape:pageshadow="2"
     inkscape:zoom="0.89322858"
     inkscape:cx="27.536399"
     inkscape:cy="445.76901"
     inkscape:document-units="px"
     inkscape:current-layer="layer1"
     showgrid="false"
     inkscape:window-width="1920"
     inkscape:window-height="1136"
     inkscape:window-x="0"
     inkscape:window-y="21"
     inkscape:window-maximized="1"
     fit-margin-top="0"
     fit-margin-left="0"
     fit-margin-right="0"
     fit-margin-bottom="0" />
  <metadata
     id="metadata7">
    <rdf:RDF>
      <cc:Work
         rdf:about="">
        <dc:format>image/svg+xml</dc:format>
        <dc:type
           rdf:resource="http://purl.org/dc/dcmitype/StillImage" />
        <dc:title></dc:title>
      </cc:Work>
    </rdf:RDF>
  </metadata>
  <g
     inkscape:label="Layer 1"
     inkscape:groupmode="layer"
     id="layer1"
     transform="translate(-157.54862,-449.85838)">
    <text
       xml:space="preserve"
       style="color:#000000;font-style:normal;font-variant:normal;font-weight:normal;font-stretch:normal;font-size:15px;line-height:normal;font-family:'Droid Sans Thai';-inkscape-font-specification:'Droid Sans Thai';text-indent:0;text-align:center;text-decoration:none;text-decoration-line:none;text-decoration-style:solid;text-decoration-color:#000000;letter-spacing:normal;word-spacing:normal;text-transform:none;direction:ltr;block-progression:tb;writing-mode:lr-tb;baseline-shift:baseline;text-anchor:middle;white-space:normal;clip-rule:nonzero;display:inline;overflow:visible;visibility:visible;opacity:1;isolation:auto;mix-blend-mode:normal;color-interpolation:sRGB;color-interpolation-filters:linearRGB;solid-color:#000000;solid-opacity:1;fill:#000000;fill-opacity:1;fill-rule:evenodd;stroke:none;stroke-width:0.49599999;stroke-linecap:butt;stroke-linejoin:round;stroke-miterlimit:10;stroke-dasharray:none;stroke-dashoffset:0;stroke-opacity:1;marker:none;color-rendering:auto;image-rendering:auto;shape-rendering:auto;text-rendering:auto;enable-background:accumulate"
       x="258.57144"
       y="102.36221"
       id="text3347"><tspan
         sodipodi:role="line"
         id="tspan3349"
         x="258.57144"
         y="102.36221"
         style="font-size:50px" /></text>
    <path
       id="rect2985"
       sodipodi:nodetypes="ssscscccsscccscssss"
       style="fill:#000000;stroke-width:25.79999924"
       inkscape:connector-curvature="0"
       d="m 310.51877,449.85838 c -9.0304,0 -16.34205,10.519 -16.34205,19.55 l 0,7.73841 c 0,6.3886 3.685,11.885 9.01115,14.56 -0.08,1.0586 -0.1532,2.1275 -0.1532,3.20739 l 0,153.8 c -2.41779,4.5548 -4.77339,9.2986 -7.33119,14 l -132.17,239.08 c -21.284,39.127 19.219,72.395 43.071,72.395 l 330.71999,0 c 23.851,0 64.789,-32.472 43.071,-72.395 l -132.16,-239.08 c -2.5578,-4.7019 -4.9134,-9.4456 -7.3312,-14 l 0,-153.79999 c 0,-1.07981 -0.073,-2.14871 -0.1531,-3.2074 5.3262,-2.6758 9.0111,-8.1719 9.0111,-14.56 l 0,-7.73841 c 0,-9.03059 -7.2608,-19.55 -16.291,-19.55 z" />
    <g
       id="g3213"
       style="fill:#ffffff"
       transform="matrix(1.6291,0,0,1.6291,-1413.3513,-609.36166)">
      <path
         id="path3201"
         sodipodi:nodetypes="sssssssss"
         style="fill:#ffffff;stroke-width:25.79999924"
         inkscape:connector-curvature="0"
         d="m 1080.3,768.8 31.307,0 c 12.456,0 16.531,11.607 22.483,22.611 l 70.701,130.71 c 14.28,26.399 -10.028,38.012 -22.484,38.012 l -172.71,0 c -12.456,0 -35.208,-14.489 -22.483,-38.012 l 70.701,-130.71 c 5.9522,-11.004 10.028,-22.611 22.483,-22.611 z" />
      <rect
         id="rect3203"
         style="fill:#ffffff;stroke-width:25.79999924"
         ry="0"
         height="117.7"
         width="64.230003"
         y="670.48999"
         x="1063.8" />
      <rect
         id="rect3205"
         style="fill:#ffffff;stroke-width:25.79999924"
         transform="matrix(0,-1,1,0,0,0)"
         ry="4.3000002"
         height="75.528999"
         width="13.263"
         y="1058.1"
         x="-671.96002" />
    </g>
    <path
       id="path3201-1"
       d="m 439.23877,711.28838 91.927,174.75 c 20.125,38.256 -14.442,54.746 -32.381,54.746 l -248.74005,0 c -17.939,0 -50.781,-20.907 -32.381,-54.746 l 90.12705,-165.75 c 79.68,31.256 108.66,-55.62 131.45,-8.999 z"
       sodipodi:nodetypes="csssscc"
       style="fill:#cc0000;stroke-width:25.79999924"
       inkscape:connector-curvature="0" />
    <circle
       r="29.696489"
       cy="838.32263"
       cx="353.60538"
       id="path3252"
       style="fill:#ffffff" />
    <circle
       r="17.548267"
       cy="802.80109"
       cx="323.53726"
       id="path3254"
       style="fill:#ffffff" />
    <circle
       r="10.349043"
       cy="768.63"
       cx="400.00577"
       id="path3256"
       style="fill:#ffffff" />
    <rect
       id="rect3264"
       style="fill:#000000"
       ry="7.5398998"
       height="164.10001"
       width="15.08"
       y="486.9184"
       x="391.12869" />
    <flowRoot
       xml:space="preserve"
       id="flowRoot4185"
       style="color:#000000;font-style:normal;font-variant:normal;font-weight:normal;font-stretch:normal;font-size:50px;line-height:normal;font-family:'Droid Sans Thai';-inkscape-font-specification:'Droid Sans Thai';text-indent:0;text-align:center;text-decoration:none;text-decoration-line:none;text-decoration-style:solid;text-decoration-color:#000000;letter-spacing:normal;word-spacing:normal;text-transform:none;direction:ltr;block-progression:tb;writing-mode:lr-tb;baseline-shift:baseline;text-anchor:middle;white-space:normal;clip-rule:nonzero;display:inline;overflow:visible;visibility:visible;opacity:1;isolation:auto;mix-blend-mode:normal;color-interpolation:sRGB;color-interpolation-filters:linearRGB;solid-color:#000000;solid-opacity:1;fill:#cc0000;fill-opacity:0;fill-rule:evenodd;stroke:none;stroke-width:0.49599999;stroke-linecap:butt;stroke-linejoin:round;stroke-miterlimit:10;stroke-dasharray:none;stroke-dashoffset:0;stroke-opacity:1;marker:none;color-rendering:auto;image-rendering:auto;shape-rendering:auto;text-rendering:auto;enable-background:accumulate"><flowRegion
         id="flowRegion4187"><rect
           id="rect4189"
           width="508.26855"
           height="127.62691"
           x="135.46364"
           y="237.34126"
           style="font-size:50px" /></flowRegion><flowPara
         id="flowPara4191" /></flowRoot>  </g>
</svg>
